<svg width="32" height="34" viewBox="0 0 32 34" fill="none" xmlns="http://www.w3.org/2000/svg">
<path d="M20.129 5.71015C20.129 6.69414 19.694 7.63783 18.9197 8.33361C18.1453 9.0294 17.0951 9.42029 16 9.42029C14.9049 9.42029 13.8547 9.0294 13.0803 8.33361C12.306 7.63783 11.871 6.69414 11.871 5.71015C11.871 4.72615 12.306 3.78246 13.0803 3.08668C13.8547 2.39089 14.9049 2 16 2C17.0951 2 18.1453 2.39089 18.9197 3.08668C19.694 3.78246 20.129 4.72615 20.129 5.71015Z" stroke="#333333" stroke-width="3"/>
<mask id="path-2-inside-1_4_255" fill="white">
<path d="M16 26.1158L17.344 25.4257C17.2085 25.2129 17.0129 25.036 16.7768 24.913C16.5408 24.79 16.2728 24.7252 16 24.7252C15.7272 24.7252 15.4592 24.79 15.2231 24.913C14.9871 25.036 14.7915 25.2129 14.656 25.4257L16 26.1158ZM3.22064 19.7343L7.71303 21.0811L8.68955 18.4413L4.20129 17.0945L3.22064 19.7343ZM8.39432 22.3815L5.82194 28.3938L8.71226 29.3937L11.2867 23.3795L8.39432 22.3815ZM27.7987 17.0945L23.3063 18.4413L24.287 21.0811L28.7752 19.7343L27.7987 17.0945ZM20.7112 23.3795L23.2877 29.3937L26.176 28.3938L23.6015 22.3815L20.7112 23.3795ZM14.0903 31.9221L17.3419 26.8059L14.6539 25.4257L11.4003 30.5401L14.0903 31.9221ZM26.2999 11.5794L22.3855 12.3326L23.0317 15.054L26.9523 14.299L26.2999 11.5794ZM9.62064 12.3326L5.69806 11.5794L5.04981 14.299L8.96826 15.054L9.62064 12.3326ZM14.6581 26.8059L17.9117 31.9221L20.5997 30.5401L17.3461 25.4257L14.6581 26.8059ZM22.3855 12.3326L21.9603 12.4142L22.5879 15.1393L23.0317 15.054L22.3855 12.3326ZM8.96826 15.054L9.41419 15.1393L10.0418 12.4123L9.61652 12.3326L8.96826 15.054ZM21.9603 12.4142C18.0291 13.1449 13.973 13.143 10.0418 12.4123L9.41419 15.1393C13.7588 15.9467 18.2412 15.9467 22.5858 15.1393L21.9603 12.4142ZM10.1058 33.9998C11.7533 33.9998 13.2748 33.2059 14.0903 31.9221L11.4003 30.5401C11.2698 30.7457 11.0833 30.9167 10.8556 31.0356C10.6279 31.1545 10.3692 31.2172 10.1058 31.2172V33.9998ZM23.2877 29.3937C23.3749 29.5969 23.4057 29.8162 23.3774 30.0325C23.3491 30.2488 23.2626 30.4557 23.1254 30.6352C22.9882 30.8148 22.8044 30.9616 22.5899 31.063C22.3754 31.1644 22.1366 31.2173 21.8942 31.2172V33.9998C22.6393 34 23.3732 33.8371 24.0326 33.5253C24.692 33.2136 25.257 32.7622 25.6787 32.2103C26.1005 31.6583 26.3664 31.0224 26.4534 30.3575C26.5404 29.6925 26.4438 29.0186 26.176 28.3938L23.2877 29.3937ZM23.3084 18.4413C22.8501 18.5786 22.3628 18.714 21.9665 18.9329L23.5933 21.3019C23.5726 21.3111 23.5892 21.3 23.7089 21.2592C23.8348 21.2165 24.0041 21.1664 24.287 21.0811L23.3084 18.4413ZM23.6015 22.3815C23.5266 22.2114 23.4571 22.0401 23.3889 21.8676C23.3476 21.7582 23.3476 21.7396 23.3517 21.7582L20.2839 22.1366C20.3458 22.5503 20.5399 22.9751 20.7133 23.3795L23.6015 22.3815ZM21.9665 18.9329C21.3708 19.2631 20.8947 19.7416 20.596 20.3104C20.2973 20.8791 20.1888 21.5136 20.2839 22.1366L23.3517 21.7582C23.3386 21.6693 23.3544 21.5789 23.3973 21.4979C23.4401 21.4169 23.5082 21.3488 23.5933 21.3019L21.9665 18.9329ZM28.9032 15.7181C28.9032 16.0227 28.7966 16.3195 28.5983 16.5666C28.4001 16.8136 28.1203 16.9983 27.7987 17.0945L28.7752 19.7343C29.7136 19.4535 30.5318 18.9145 31.1103 18.1937C31.6887 17.4729 32 16.6068 32 15.7181H28.9032ZM5.82194 28.3938C5.55413 29.0186 5.45964 29.6925 5.54663 30.3575C5.63363 31.0224 5.89949 31.6583 6.32126 32.2103C6.74302 32.7622 7.30799 33.2136 7.96737 33.5253C8.62675 33.8371 9.3607 34 10.1058 33.9998V31.2172C9.86341 31.2173 9.62463 31.1644 9.41011 31.063C9.19559 30.9616 9.01178 30.8148 8.87457 30.6352C8.73736 30.4557 8.65088 30.2488 8.6226 30.0325C8.59432 29.8162 8.62509 29.5969 8.71226 29.3937L5.82194 28.3938ZM7.71303 21.0811C7.99587 21.1646 8.16516 21.2165 8.2911 21.2592C8.41084 21.3 8.42529 21.3111 8.40671 21.3019L10.0335 18.9329C9.63716 18.714 9.14994 18.5786 8.69161 18.4413L7.71303 21.0811ZM11.2846 23.3814C11.4601 22.9733 11.6521 22.5503 11.7161 22.1366L8.64826 21.7582C8.65032 21.7396 8.65032 21.7582 8.6111 21.8676C8.54288 22.0401 8.47131 22.2114 8.39639 22.3815L11.2846 23.3814ZM8.40671 21.3019C8.49177 21.3488 8.55986 21.4169 8.60273 21.4979C8.6456 21.5789 8.66142 21.6693 8.64826 21.7582L11.7161 22.1366C11.8112 21.5136 11.7027 20.8791 11.404 20.3104C11.1053 19.7416 10.6292 19.2631 10.0335 18.9329L8.40671 21.3019ZM0 15.7181C0 17.5416 1.29858 19.1592 3.22064 19.7343L4.20129 17.0945C3.87968 16.9983 3.59992 16.8136 3.40168 16.5666C3.20344 16.3195 3.09676 16.0227 3.09677 15.7181H0ZM3.09677 15.7181C3.09677 14.7943 4.04645 14.1042 5.04981 14.299L5.69806 11.5794C5.01111 11.4469 4.30194 11.4541 3.61849 11.6006C2.93505 11.747 2.29671 12.0289 1.75022 12.4257C1.20372 12.8225 0.76292 13.3241 0.460084 13.8938C0.157248 14.4634 4.98177e-05 15.0868 0 15.7181H3.09677ZM17.9117 31.9221C18.3132 32.5533 18.8911 33.0779 19.5908 33.4428C20.2905 33.8076 21.0852 33.9998 21.8942 33.9998V31.2172C21.3574 31.2172 20.864 30.9575 20.5997 30.5401L17.9117 31.9221ZM32 15.7181C31.9999 15.087 31.8427 14.4638 31.54 13.8943C31.2373 13.3248 30.7967 12.8233 30.2504 12.4266C29.7042 12.0298 29.0661 11.7478 28.3829 11.6013C27.6998 11.4547 26.9867 11.4472 26.2999 11.5794L26.9523 14.299C27.1877 14.2536 27.4294 14.2561 27.6637 14.3063C27.8979 14.3566 28.1167 14.4533 28.3039 14.5894C28.4912 14.7254 28.6422 14.8974 28.7459 15.0927C28.8496 15.288 28.9033 15.5017 28.9032 15.7181H32Z"/>
</mask>
<path d="M16 26.1158L17.344 25.4257C17.2085 25.2129 17.0129 25.036 16.7768 24.913C16.5408 24.79 16.2728 24.7252 16 24.7252C15.7272 24.7252 15.4592 24.79 15.2231 24.913C14.9871 25.036 14.7915 25.2129 14.656 25.4257L16 26.1158ZM3.22064 19.7343L7.71303 21.0811L8.68955 18.4413L4.20129 17.0945L3.22064 19.7343ZM8.39432 22.3815L5.82194 28.3938L8.71226 29.3937L11.2867 23.3795L8.39432 22.3815ZM27.7987 17.0945L23.3063 18.4413L24.287 21.0811L28.7752 19.7343L27.7987 17.0945ZM20.7112 23.3795L23.2877 29.3937L26.176 28.3938L23.6015 22.3815L20.7112 23.3795ZM14.0903 31.9221L17.3419 26.8059L14.6539 25.4257L11.4003 30.5401L14.0903 31.9221ZM26.2999 11.5794L22.3855 12.3326L23.0317 15.054L26.9523 14.299L26.2999 11.5794ZM9.62064 12.3326L5.69806 11.5794L5.04981 14.299L8.96826 15.054L9.62064 12.3326ZM14.6581 26.8059L17.9117 31.9221L20.5997 30.5401L17.3461 25.4257L14.6581 26.8059ZM22.3855 12.3326L21.9603 12.4142L22.5879 15.1393L23.0317 15.054L22.3855 12.3326ZM8.96826 15.054L9.41419 15.1393L10.0418 12.4123L9.61652 12.3326L8.96826 15.054ZM21.9603 12.4142C18.0291 13.1449 13.973 13.143 10.0418 12.4123L9.41419 15.1393C13.7588 15.9467 18.2412 15.9467 22.5858 15.1393L21.9603 12.4142ZM10.1058 33.9998C11.7533 33.9998 13.2748 33.2059 14.0903 31.9221L11.4003 30.5401C11.2698 30.7457 11.0833 30.9167 10.8556 31.0356C10.6279 31.1545 10.3692 31.2172 10.1058 31.2172V33.9998ZM23.2877 29.3937C23.3749 29.5969 23.4057 29.8162 23.3774 30.0325C23.3491 30.2488 23.2626 30.4557 23.1254 30.6352C22.9882 30.8148 22.8044 30.9616 22.5899 31.063C22.3754 31.1644 22.1366 31.2173 21.8942 31.2172V33.9998C22.6393 34 23.3732 33.8371 24.0326 33.5253C24.692 33.2136 25.257 32.7622 25.6787 32.2103C26.1005 31.6583 26.3664 31.0224 26.4534 30.3575C26.5404 29.6925 26.4438 29.0186 26.176 28.3938L23.2877 29.3937ZM23.3084 18.4413C22.8501 18.5786 22.3628 18.714 21.9665 18.9329L23.5933 21.3019C23.5726 21.3111 23.5892 21.3 23.7089 21.2592C23.8348 21.2165 24.0041 21.1664 24.287 21.0811L23.3084 18.4413ZM23.6015 22.3815C23.5266 22.2114 23.4571 22.0401 23.3889 21.8676C23.3476 21.7582 23.3476 21.7396 23.3517 21.7582L20.2839 22.1366C20.3458 22.5503 20.5399 22.9751 20.7133 23.3795L23.6015 22.3815ZM21.9665 18.9329C21.3708 19.2631 20.8947 19.7416 20.596 20.3104C20.2973 20.8791 20.1888 21.5136 20.2839 22.1366L23.3517 21.7582C23.3386 21.6693 23.3544 21.5789 23.3973 21.4979C23.4401 21.4169 23.5082 21.3488 23.5933 21.3019L21.9665 18.9329ZM28.9032 15.7181C28.9032 16.0227 28.7966 16.3195 28.5983 16.5666C28.4001 16.8136 28.1203 16.9983 27.7987 17.0945L28.7752 19.7343C29.7136 19.4535 30.5318 18.9145 31.1103 18.1937C31.6887 17.4729 32 16.6068 32 15.7181H28.9032ZM5.82194 28.3938C5.55413 29.0186 5.45964 29.6925 5.54663 30.3575C5.63363 31.0224 5.89949 31.6583 6.32126 32.2103C6.74302 32.7622 7.30799 33.2136 7.96737 33.5253C8.62675 33.8371 9.3607 34 10.1058 33.9998V31.2172C9.86341 31.2173 9.62463 31.1644 9.41011 31.063C9.19559 30.9616 9.01178 30.8148 8.87457 30.6352C8.73736 30.4557 8.65088 30.2488 8.6226 30.0325C8.59432 29.8162 8.62509 29.5969 8.71226 29.3937L5.82194 28.3938ZM7.71303 21.0811C7.99587 21.1646 8.16516 21.2165 8.2911 21.2592C8.41084 21.3 8.42529 21.3111 8.40671 21.3019L10.0335 18.9329C9.63716 18.714 9.14994 18.5786 8.69161 18.4413L7.71303 21.0811ZM11.2846 23.3814C11.4601 22.9733 11.6521 22.5503 11.7161 22.1366L8.64826 21.7582C8.65032 21.7396 8.65032 21.7582 8.6111 21.8676C8.54288 22.0401 8.47131 22.2114 8.39639 22.3815L11.2846 23.3814ZM8.40671 21.3019C8.49177 21.3488 8.55986 21.4169 8.60273 21.4979C8.6456 21.5789 8.66142 21.6693 8.64826 21.7582L11.7161 22.1366C11.8112 21.5136 11.7027 20.8791 11.404 20.3104C11.1053 19.7416 10.6292 19.2631 10.0335 18.9329L8.40671 21.3019ZM0 15.7181C0 17.5416 1.29858 19.1592 3.22064 19.7343L4.20129 17.0945C3.87968 16.9983 3.59992 16.8136 3.40168 16.5666C3.20344 16.3195 3.09676 16.0227 3.09677 15.7181H0ZM3.09677 15.7181C3.09677 14.7943 4.04645 14.1042 5.04981 14.299L5.69806 11.5794C5.01111 11.4469 4.30194 11.4541 3.61849 11.6006C2.93505 11.747 2.29671 12.0289 1.75022 12.4257C1.20372 12.8225 0.76292 13.3241 0.460084 13.8938C0.157248 14.4634 4.98177e-05 15.0868 0 15.7181H3.09677ZM17.9117 31.9221C18.3132 32.5533 18.8911 33.0779 19.5908 33.4428C20.2905 33.8076 21.0852 33.9998 21.8942 33.9998V31.2172C21.3574 31.2172 20.864 30.9575 20.5997 30.5401L17.9117 31.9221ZM32 15.7181C31.9999 15.087 31.8427 14.4638 31.54 13.8943C31.2373 13.3248 30.7967 12.8233 30.2504 12.4266C29.7042 12.0298 29.0661 11.7478 28.3829 11.6013C27.6998 11.4547 26.9867 11.4472 26.2999 11.5794L26.9523 14.299C27.1877 14.2536 27.4294 14.2561 27.6637 14.3063C27.8979 14.3566 28.1167 14.4533 28.3039 14.5894C28.4912 14.7254 28.6422 14.8974 28.7459 15.0927C28.8496 15.288 28.9033 15.5017 28.9032 15.7181H32Z" fill="#333333"/>
<path d="M4.20129 17.0945L4.82644 17.3261L3.57635 16.8624L4.20129 17.0945ZM8.71226 29.3937L8.49466 30.0238L8.93021 28.7636L8.71226 29.3937ZM27.7987 17.0945L28.4239 16.863L27.1735 17.3258L27.7987 17.0945ZM23.2877 29.3937L23.0696 28.7637L23.5053 30.0238L23.2877 29.3937ZM14.0903 31.9221L13.7858 32.5152L14.395 31.3292L14.0903 31.9221ZM23.0317 15.054L22.3832 15.2085L23.6804 14.8999L23.0317 15.054ZM23.5933 21.3019L23.0439 21.6795L24.1428 20.9244L23.5933 21.3019ZM8.40671 21.3019L7.85715 20.9244L8.95613 21.6795L8.40671 21.3019ZM4.33715 18.6469L4.82644 17.3261L3.57614 16.863L3.08685 18.1838L4.33715 18.6469ZM7.57717 19.5287L7.08788 20.8495L8.33818 21.3127L8.82747 19.9919L7.57717 19.5287ZM10.0599 22.2506L8.6147 21.7497L8.17807 23.0096L9.62323 23.5104L10.0599 22.2506ZM7.0495 29.5248L8.49466 30.0238L8.92985 28.7635L7.48469 28.2645L7.0495 29.5248ZM28.9131 18.1838L28.4239 16.863L27.1736 17.3261L27.6628 18.6469L28.9131 18.1838ZM23.1725 19.9919L23.6618 21.3127L24.9121 20.8495L24.4228 19.5287L23.1725 19.9919ZM22.3768 23.5104L23.8219 23.0096L23.3853 21.7497L21.9401 22.2506L22.3768 23.5104ZM24.5153 28.2645L23.0701 28.7635L23.5053 30.0238L24.9505 29.5248L24.5153 28.2645ZM12.4418 31.8251L13.7858 32.5152L14.3948 31.3291L13.0508 30.639L12.4418 31.8251ZM27.2743 12.7837L26.9481 11.4239L25.6516 11.7349L25.9778 13.0947L27.2743 12.7837ZM22.0591 13.8488L22.3832 15.2085L23.6802 14.8994L23.3561 13.5396L22.0591 13.8488ZM9.94093 13.8486L10.2651 12.487L8.96797 12.1782L8.64384 13.5398L9.94093 13.8486ZM4.72544 12.7846L4.40131 14.1444L5.6983 14.4535L6.02243 13.0938L4.72544 12.7846ZM18.9492 30.6371L17.6052 31.3272L18.2142 32.5133L19.5582 31.8233L18.9492 30.6371ZM22.9216 13.6261L22.6078 12.2645L21.3086 12.5639L21.6224 13.9255L22.9216 13.6261ZM9.07832 13.6263L8.76451 14.9898L10.0639 15.2888L10.3777 13.9253L9.07832 13.6263ZM22.2305 20.4959L23.0439 21.6795L24.1427 20.9242L23.3293 19.7407L22.2305 20.4959ZM21.8994 22.6091L23.4334 22.4199L23.2701 21.0965L21.7362 21.2858L21.8994 22.6091ZM8.67071 19.7407L7.85729 20.9242L8.95613 21.6795L9.76955 20.4959L8.67071 19.7407ZM10.1006 22.6091L11.6345 22.7983L11.7977 21.475L10.2638 21.2858L10.1006 22.6091ZM3.57635 16.8624L2.59571 19.5022L3.84558 19.9665L4.82623 17.3267L3.57635 16.8624ZM5.60398 29.0238L8.4943 30.0237L8.93021 28.7636L6.03989 27.7638L5.60398 29.0238ZM29.4005 19.503L28.424 16.8632L27.1735 17.3258L28.15 19.9656L29.4005 19.503ZM23.5058 30.0237L26.3941 29.0238L25.9579 27.7638L23.0696 28.7637L23.5058 30.0237ZM11.0956 31.1331L13.7857 32.5151L14.395 31.3292L11.7049 29.9471L11.0956 31.1331ZM21.7369 12.4866L22.3831 15.208L23.6804 14.8999L23.0342 12.1786L21.7369 12.4866ZM27.6005 14.1434L26.9481 11.4239L25.6516 11.7349L26.304 14.4545L27.6005 14.1434ZM5.04957 11.4248L4.40131 14.1444L5.6983 14.4535L6.34656 11.734L5.04957 11.4248ZM18.2166 32.515L20.9046 31.133L20.2949 29.9472L17.6069 31.3292L18.2166 32.515ZM10.0639 15.2888L10.6915 12.5619L9.39212 12.2628L8.76451 14.9898L10.0639 15.2888ZM9.43914 31.2172V33.9998H10.7725V31.2172H9.43914ZM21.2275 31.2172V33.9998H22.5609V31.2172H21.2275ZM21.4169 19.3103L23.0437 21.6793L24.1428 20.9244L22.516 18.5555L21.4169 19.3103ZM23.2701 21.0965L20.2023 21.475L20.3655 22.7983L23.4334 22.4199L23.2701 21.0965ZM32 15.0514H28.9032V16.3848H32V15.0514ZM8.95626 21.6793L10.5831 19.3103L9.48399 18.5555L7.85715 20.9244L8.95626 21.6793ZM11.7977 21.475L8.72988 21.0965L8.56664 22.4199L11.6345 22.7983L11.7977 21.475ZM3.09677 15.0514H0V16.3848H3.09677V15.0514ZM4.20129 17.0945L4.5845 15.8175L4.5834 15.8171L4.20129 17.0945ZM7.71303 21.0811L7.33014 22.3583L7.3356 22.3599L7.71303 21.0811ZM8.71226 29.3937L9.93764 29.9193L9.93801 29.9184L8.71226 29.3937ZM27.7987 17.0945L27.4166 15.8171L27.4158 15.8174L27.7987 17.0945ZM23.2877 29.3937L22.0621 29.9187L22.0624 29.9193L23.2877 29.3937ZM14.0903 31.9221L12.965 31.207L12.9649 31.2072L14.0903 31.9221ZM16 26.1158L15.391 27.3019L16 27.6146L16.609 27.3019L16 26.1158ZM17.344 25.4257L17.953 26.6118L19.2544 25.9436L18.4687 24.7096L17.344 25.4257ZM14.656 25.4257L13.5313 24.7096L12.7456 25.9436L14.047 26.6118L14.656 25.4257ZM26.2999 11.5794L26.5518 12.8887L26.5519 12.8887L26.2999 11.5794ZM23.0317 15.054L23.2835 16.3633L23.2839 16.3632L23.0317 15.054ZM9.61652 12.3326L9.86231 11.0221L8.61382 10.7879L8.31947 12.0236L9.61652 12.3326ZM5.04981 14.299L4.79571 15.6079L4.79754 15.6082L5.04981 14.299ZM9.41419 15.1393L9.16359 16.4489L9.17057 16.4502L9.41419 15.1393ZM23.5933 21.3019L24.2374 22.4693L23.0469 20.0856L23.5933 21.3019ZM23.3517 21.7582L22.0503 22.0479L24.6707 21.563L23.3517 21.7582ZM8.40671 21.3019L9.00222 20.1089L7.76258 22.4693L8.40671 21.3019ZM11.7161 22.1366L13.0338 22.3405L13.0342 22.3377L11.7161 22.1366ZM3.22064 19.7343L3.60353 18.4571L3.60283 18.4569L3.22064 19.7343ZM8.68955 18.4413L9.94006 18.9039L10.4327 17.5723L9.07276 17.1643L8.68955 18.4413ZM8.39432 22.3815L8.82923 21.1211L7.65648 20.7164L7.16848 21.857L8.39432 22.3815ZM5.82194 28.3938L7.04743 28.9191L7.04778 28.9183L5.82194 28.3938ZM11.2867 23.3795L12.5125 23.9042L13.0765 22.5866L11.7216 22.1191L11.2867 23.3795ZM23.3063 18.4413L22.9234 17.1642L21.5612 17.5725L22.0564 18.9056L23.3063 18.4413ZM28.7752 19.7343L28.393 18.4569L28.392 18.4572L28.7752 19.7343ZM20.7112 23.3795L20.276 22.1192L18.9212 22.5871L19.4856 23.9046L20.7112 23.3795ZM26.176 28.3938L24.9503 28.9186L24.9505 28.9191L26.176 28.3938ZM23.6015 22.3815L24.8273 21.8566L24.8217 21.844L23.6015 22.3815ZM17.3419 26.8059L18.4672 27.521L19.2513 26.2874L17.951 25.6197L17.3419 26.8059ZM14.6539 25.4257L15.263 24.2396L14.1815 23.6843L13.529 24.71L14.6539 25.4257ZM11.4003 30.5401L10.2753 29.8244L10.2743 29.826L11.4003 30.5401ZM22.3855 12.3326L22.6369 13.642L22.6375 13.6419L22.3855 12.3326ZM26.9523 14.299L27.2044 15.6082L27.2046 15.6082L26.9523 14.299ZM9.62064 12.3326L10.9172 12.6434L11.2426 11.2863L9.87206 11.0232L9.62064 12.3326ZM5.69806 11.5794L5.44551 12.8886L5.44665 12.8888L5.69806 11.5794ZM8.96826 15.054L8.71599 16.3632L8.71766 16.3635L8.96826 15.054ZM14.6581 26.8059L14.049 25.6197L12.7484 26.2876L13.533 27.5214L14.6581 26.8059ZM17.9117 31.9221L16.7866 32.6376L16.7867 32.6377L17.9117 31.9221ZM20.5997 30.5401L21.7263 29.8269L21.7247 29.8244L20.5997 30.5401ZM17.3461 25.4257L18.471 24.71L17.8185 23.6843L16.737 24.2396L17.3461 25.4257ZM22.5879 15.1393L21.2886 15.4385L21.5771 16.6914L22.8396 16.4487L22.5879 15.1393ZM10.0418 12.4123L9.79601 13.7228L9.79816 13.7232L10.0418 12.4123ZM22.5858 15.1393L22.8294 16.4502L24.1964 16.1961L23.8853 14.841L22.5858 15.1393ZM10.1058 33.9998L10.1058 32.6665L10.1055 32.6665L10.1058 33.9998ZM10.1058 31.2172L10.1056 29.8839L10.1052 29.8839L10.1058 31.2172ZM21.8942 31.2172L21.8948 29.8839H21.8942V31.2172ZM21.8942 33.9998L21.8945 32.6665L21.8942 32.6665L21.8942 33.9998ZM23.3084 18.4413L24.5586 17.9779L24.1239 16.8052L22.9258 17.1641L23.3084 18.4413ZM21.9665 18.9329L21.3219 17.7657L21.32 17.7668L21.9665 18.9329ZM23.7089 21.2592L23.2811 19.9964L23.2788 19.9971L23.7089 21.2592ZM23.3889 21.8676L22.1414 22.3383L22.1451 22.3482L22.149 22.358L23.3889 21.8676ZM20.2839 22.1366L21.6025 21.9392L21.602 21.9356L20.2839 22.1366ZM20.7133 23.3795L19.4879 23.905L19.9766 25.0448L21.1488 24.6398L20.7133 23.3795ZM28.9032 15.7181L27.5699 15.7173L27.5699 15.7181L28.9032 15.7181ZM32 15.7181L33.3333 15.7182L33.3333 15.7178L32 15.7181ZM8.2911 21.2592L8.72124 19.9971L8.71894 19.9964L8.2911 21.2592ZM10.0335 18.9329L10.68 17.7668L10.6781 17.7657L10.0335 18.9329ZM8.69161 18.4413L9.07418 17.1641L7.87613 16.8052L7.44142 17.9779L8.69161 18.4413ZM11.2846 23.3814L10.8485 24.6414L12.0199 25.0469L12.5095 23.9081L11.2846 23.3814ZM8.64826 21.7582L7.32311 21.6107L9.96722 21.9534L8.64826 21.7582ZM8.6111 21.8676L9.85092 22.3582L9.85892 22.338L9.86625 22.3175L8.6111 21.8676ZM8.39639 22.3815L7.17612 21.8442L6.59311 23.1682L7.9602 23.6415L8.39639 22.3815ZM0 15.7181L-1.33333 15.718V15.7181H0ZM3.09677 15.7181L4.43011 15.7181V15.7181H3.09677ZM16.609 27.3019L17.953 26.6118L16.735 24.2396L15.391 24.9296L16.609 27.3019ZM18.4687 24.7096C18.2006 24.2885 17.8247 23.9556 17.3931 23.7306L16.1606 26.0954C16.201 26.1165 16.2164 26.1373 16.2193 26.1418L18.4687 24.7096ZM17.3931 23.7306C16.9619 23.5059 16.4818 23.3919 16 23.3919V26.0586C16.0639 26.0586 16.1198 26.0741 16.1606 26.0954L17.3931 23.7306ZM16 23.3919C15.5182 23.3919 15.0381 23.5059 14.6069 23.7306L15.8394 26.0954C15.8802 26.0741 15.9361 26.0586 16 26.0586V23.3919ZM14.6069 23.7306C14.1753 23.9556 13.7994 24.2885 13.5313 24.7096L15.7807 26.1418C15.7836 26.1373 15.799 26.1165 15.8394 26.0954L14.6069 23.7306ZM14.047 26.6118L15.391 27.3019L16.609 24.9296L15.265 24.2396L14.047 26.6118ZM2.83776 21.0115L7.33015 22.3583L8.09592 19.8039L3.60353 18.4571L2.83776 21.0115ZM8.96355 21.5437L9.94006 18.9039L7.43903 17.9787L6.46252 20.6185L8.96355 21.5437ZM9.07276 17.1643L4.5845 15.8175L3.81808 18.3716L8.30634 19.7184L9.07276 17.1643ZM7.16848 21.857L4.59609 27.8693L7.04778 28.9183L9.62017 22.906L7.16848 21.857ZM9.93801 29.9184L12.5125 23.9042L10.061 22.8548L7.48651 28.869L9.93801 29.9184ZM11.7216 22.1191L8.82923 21.1211L7.95941 23.6419L10.8518 24.6399L11.7216 22.1191ZM27.4158 15.8174L22.9234 17.1642L23.6892 19.7185L28.1816 18.3717L27.4158 15.8174ZM22.0564 18.9056L23.0371 21.5454L25.5368 20.6168L24.5562 17.977L22.0564 18.9056ZM24.6702 22.3582L29.1584 21.0114L28.392 18.4572L23.9038 19.804L24.6702 22.3582ZM19.4856 23.9046L22.0621 29.9187L24.5133 28.8686L21.9368 22.8545L19.4856 23.9046ZM27.4017 27.869L24.8272 21.8567L22.3759 22.9063L24.9503 28.9186L27.4017 27.869ZM23.1664 21.1212L20.276 22.1192L21.1464 24.6398L24.0367 23.6418L23.1664 21.1212ZM15.2156 32.6373L18.4672 27.521L16.2166 26.0907L12.965 31.207L15.2156 32.6373ZM17.951 25.6197L15.263 24.2396L14.0449 26.6118L16.7329 27.992L17.951 25.6197ZM13.529 24.71L10.2753 29.8244L12.5252 31.2558L15.7789 26.1414L13.529 24.71ZM26.0479 10.2701L22.1336 11.0233L22.6375 13.6419L26.5518 12.8887L26.0479 10.2701ZM23.2839 16.3632L27.2044 15.6082L26.7001 12.9897L22.7796 13.7447L23.2839 16.3632ZM9.87206 11.0232L5.94948 10.27L5.44665 12.8888L9.36923 13.642L9.87206 11.0232ZM4.79754 15.6082L8.71599 16.3632L9.22053 13.7447L5.30208 12.9897L4.79754 15.6082ZM10.2649 15.3648L10.9172 12.6434L8.32405 12.0217L7.67166 14.7431L10.2649 15.3648ZM13.533 27.5214L16.7866 32.6376L19.0368 31.2066L15.7832 26.0904L13.533 27.5214ZM21.7247 29.8244L18.471 24.71L16.2211 26.1414L19.4748 31.2558L21.7247 29.8244ZM16.737 24.2396L14.049 25.6197L15.2671 27.992L17.9551 26.6118L16.737 24.2396ZM22.1342 11.0231L21.7089 11.1048L22.2116 13.7236L22.6369 13.642L22.1342 11.0231ZM20.6609 12.7134L21.2886 15.4385L23.8872 14.8401L23.2596 12.115L20.6609 12.7134ZM22.8396 16.4487L23.2835 16.3633L22.78 13.7446L22.3361 13.8299L22.8396 16.4487ZM8.71766 16.3635L9.1636 16.4489L9.66479 13.8297L9.21886 13.7444L8.71766 16.3635ZM10.2876 11.1019L9.86231 11.0221L9.37072 13.6431L9.79601 13.7228L10.2876 11.1019ZM8.31947 12.0236L7.67122 14.745L10.2653 15.3629L10.9136 12.6415L8.31947 12.0236ZM21.7166 11.1033C17.9469 11.804 14.056 11.8023 10.2855 11.1015L9.79816 13.7232C13.89 14.4838 18.1112 14.4858 22.2039 13.7251L21.7166 11.1033ZM9.17057 16.4502C13.6762 17.2875 18.3238 17.2875 22.8294 16.4502L22.3422 13.8284C18.1587 14.6059 13.8413 14.6059 9.65781 13.8284L9.17057 16.4502ZM23.8853 14.841L23.2598 12.1159L20.6607 12.7125L21.2863 15.4376L23.8853 14.841ZM10.1058 35.3332C12.1647 35.3332 14.1325 34.3423 15.2158 32.6371L12.9649 31.2072C12.4172 32.0694 11.3419 32.6665 10.1058 32.6665V35.3332ZM10.2743 29.826C10.2737 29.8269 10.2655 29.8395 10.2383 29.8537L11.4728 32.2174C11.901 31.9938 12.266 31.6646 12.5262 31.2543L10.2743 29.826ZM10.2383 29.8537C10.206 29.8706 10.1597 29.8839 10.1056 29.8839L10.106 32.5505C10.5787 32.5505 11.0497 32.4384 11.4728 32.2174L10.2383 29.8537ZM22.0624 29.9193C22.0566 29.9057 22.0521 29.884 22.0553 29.8596L24.6995 30.2053C24.7592 29.7483 24.6933 29.2881 24.5131 28.8681L22.0624 29.9193ZM22.0553 29.8596C22.0568 29.8484 22.0595 29.8395 22.0621 29.8334C22.0647 29.8272 22.0666 29.8248 22.066 29.8256L24.1848 31.4448C24.4586 31.0866 24.6398 30.6617 24.6995 30.2053L22.0553 29.8596ZM22.066 29.8256C22.0646 29.8275 22.0521 29.8424 22.0201 29.8575L23.1597 32.2684C23.5567 32.0807 23.9119 31.802 24.1848 31.4448L22.066 29.8256ZM22.0201 29.8575C21.9878 29.8728 21.9443 29.8839 21.8948 29.8839L21.8936 32.5505C22.3288 32.5507 22.7629 32.456 23.1597 32.2684L22.0201 29.8575ZM21.8939 35.3332C22.8318 35.3334 23.761 35.1287 24.6026 34.7307L23.4627 32.32C22.9855 32.5456 22.4468 32.6666 21.8945 32.6665L21.8939 35.3332ZM24.6026 34.7307C25.4445 34.3326 26.1807 33.7494 26.7382 33.0198L24.6193 31.4007C24.3333 31.775 23.9396 32.0945 23.4627 32.32L24.6026 34.7307ZM26.7382 33.0198C27.2964 32.2893 27.657 31.4354 27.7754 30.5304L25.1313 30.1845C25.0757 30.6094 24.9046 31.0274 24.6193 31.4007L26.7382 33.0198ZM27.7754 30.5304C27.8943 29.6221 27.7611 28.7074 27.4015 27.8685L24.9505 28.9191C25.1265 29.3298 25.1865 29.7629 25.1313 30.1845L27.7754 30.5304ZM22.9258 17.1641C22.5285 17.283 21.8738 17.461 21.3219 17.7657L22.611 20.1001C22.8519 19.9671 23.1716 19.8742 23.691 19.7186L22.9258 17.1641ZM23.0469 20.0856C23.0565 20.0813 23.0763 20.0726 23.1026 20.0623C23.1057 20.0611 23.1501 20.0433 23.208 20.0262C23.2244 20.0214 23.2606 20.011 23.3073 20.001C23.3097 20.0005 23.4781 19.9591 23.6897 19.9756C23.7326 19.979 24.1933 20.0002 24.5623 20.3971C24.7926 20.6448 24.9152 20.9648 24.919 21.2894C24.9223 21.5755 24.8336 21.7916 24.7763 21.9053C24.6689 22.1181 24.5302 22.2471 24.4976 22.2777C24.4435 22.3284 24.3964 22.3639 24.372 22.3817C24.2903 22.4414 24.2179 22.4788 24.2156 22.48C24.1945 22.4913 24.1776 22.4997 24.169 22.5038C24.1509 22.5126 24.1368 22.5189 24.1303 22.5218C24.1158 22.5282 24.1053 22.5326 24.1012 22.5342C24.0857 22.5405 24.0936 22.5367 24.139 22.5212L23.2788 19.9971C23.2044 20.0225 23.1442 20.0446 23.0957 20.0644C23.0834 20.0694 23.0668 20.0763 23.0482 20.0846C23.0396 20.0884 23.0239 20.0954 23.0046 20.1048C22.9955 20.1092 22.9782 20.1177 22.9567 20.1292C22.9541 20.1306 22.8815 20.1682 22.7996 20.228C22.7752 20.2458 22.7281 20.2813 22.6739 20.3321C22.6413 20.3627 22.5026 20.4916 22.3952 20.7045C22.3379 20.8182 22.2492 21.0343 22.2525 21.3204C22.2563 21.645 22.3789 21.965 22.6092 22.2127C22.9782 22.6096 23.4389 22.6308 23.4818 22.6342C23.6934 22.6507 23.862 22.6093 23.8644 22.6088C23.9112 22.5988 23.9475 22.5884 23.9641 22.5835C24.0225 22.5662 24.0678 22.5482 24.0722 22.5464C24.1012 22.5351 24.1249 22.5247 24.1397 22.5181L23.0469 20.0856ZM24.1367 22.522C24.2349 22.4888 24.3713 22.4483 24.6721 22.3576L23.9018 19.8046C23.637 19.8845 23.4348 19.9443 23.2811 19.9964L24.1367 22.522ZM25.5372 20.6176L24.5586 17.9779L22.0582 18.9048L23.0368 21.5446L25.5372 20.6176ZM24.8217 21.844C24.7568 21.6967 24.6945 21.5435 24.6288 21.3773L22.149 22.358C22.2197 22.5367 22.2964 22.7261 22.3814 22.919L24.8217 21.844ZM24.6364 21.397C24.6233 21.3622 24.6256 21.365 24.6337 21.3932C24.6359 21.4006 24.6399 21.4147 24.6446 21.4336C24.6468 21.4425 24.6507 21.4585 24.655 21.4788C24.6571 21.4888 24.6604 21.5053 24.664 21.526C24.6662 21.5387 24.6746 21.5871 24.6794 21.6499C24.6812 21.6731 24.6877 21.7571 24.6786 21.8643C24.6745 21.9122 24.6623 22.0354 24.6114 22.1839C24.5792 22.278 24.4222 22.7214 23.9168 22.9588C23.3008 23.2481 22.7771 22.9763 22.5939 22.8501C22.4103 22.7237 22.3052 22.582 22.2728 22.5376C22.1938 22.4293 22.1499 22.3332 22.1405 22.313C22.1107 22.2488 22.0929 22.1963 22.0887 22.1841C22.0814 22.1626 22.076 22.145 22.0728 22.1342C22.061 22.0949 22.0538 22.0638 22.0503 22.0479L24.6532 21.4685C24.6486 21.448 24.6405 21.4134 24.6282 21.372C24.6248 21.3606 24.6192 21.3426 24.6118 21.3207C24.6075 21.3082 24.5895 21.2554 24.5597 21.191C24.5503 21.1707 24.5063 21.0746 24.4273 20.9663C24.3949 20.9218 24.2898 20.7802 24.1062 20.6537C23.9229 20.5275 23.3992 20.2557 22.7832 20.545C22.2778 20.7824 22.1208 21.2258 22.0886 21.3199C22.0377 21.4685 22.0255 21.5917 22.0214 21.6397C22.0123 21.7469 22.0188 21.831 22.0206 21.8543C22.0254 21.9172 22.0339 21.966 22.0361 21.9791C22.0398 22.0002 22.0432 22.0172 22.0454 22.0278C22.05 22.0494 22.0542 22.067 22.057 22.078C22.0627 22.1011 22.0683 22.1212 22.0728 22.1367C22.0903 22.1969 22.1132 22.2636 22.1414 22.3383L24.6364 21.397ZM18.9652 22.3341C19.0588 22.9589 19.3445 23.5706 19.4879 23.905L21.9387 22.854C21.7353 22.3796 21.6328 22.1417 21.6025 21.9392L18.9652 22.3341ZM21.1488 24.6398L24.037 23.6417L23.1661 21.1213L20.2778 22.1193L21.1488 24.6398ZM21.32 17.7668C20.5113 18.2151 19.8426 18.8773 19.4155 19.6904L21.7764 20.9303C21.9468 20.606 22.2303 20.3112 22.6129 20.0991L21.32 17.7668ZM19.4155 19.6904C18.9872 20.5059 18.827 21.4275 18.9658 22.3377L21.602 21.9356C21.5507 21.5997 21.6073 21.2523 21.7764 20.9303L19.4155 19.6904ZM24.6707 21.563C24.7 21.7609 24.6629 21.9569 24.5757 22.1216L22.2188 20.8741C22.0459 21.2009 21.9772 21.5776 22.0328 21.9534L24.6707 21.563ZM24.5757 22.1216C24.4897 22.284 24.3652 22.3988 24.2374 22.4693L22.9492 20.1344C22.6512 20.2988 22.3905 20.5497 22.2188 20.8741L24.5757 22.1216ZM27.5699 15.7181C27.5699 15.714 27.5707 15.7119 27.5703 15.713C27.5699 15.7142 27.5673 15.7211 27.5584 15.7321L29.6382 17.401C30.0182 16.9275 30.2366 16.3389 30.2366 15.718L27.5699 15.7181ZM27.5584 15.7321C27.5398 15.7553 27.4955 15.7936 27.4166 15.8171L28.1808 18.372C28.7452 18.2031 29.2603 17.872 29.6382 17.401L27.5584 15.7321ZM29.1574 21.0117C30.3374 20.6586 31.3915 19.9737 32.1502 19.0282L30.0703 17.3592C29.6722 17.8554 29.0897 18.2485 28.393 18.4569L29.1574 21.0117ZM32.1502 19.0282C32.9103 18.0809 33.3333 16.9231 33.3333 15.7182L30.6667 15.718C30.6666 16.2904 30.4671 16.8648 30.0703 17.3592L32.1502 19.0282ZM4.59644 27.8685C4.23574 28.71 4.10609 29.6249 4.22457 30.5304L6.8687 30.1845C6.81318 29.7602 6.87252 29.3272 7.04743 28.9191L4.59644 27.8685ZM4.22457 30.5304C4.34297 31.4354 4.70359 32.2893 5.26183 33.0198L7.38068 31.4007C7.0954 31.0274 6.92429 30.6094 6.8687 30.1845L4.22457 30.5304ZM5.26183 33.0198C5.81932 33.7494 6.55554 34.3326 7.3974 34.7307L8.53734 32.32C8.06045 32.0945 7.66672 31.775 7.38068 31.4007L5.26183 33.0198ZM7.3974 34.7307C8.23899 35.1287 9.16817 35.3334 10.1061 35.3332L10.1055 32.6665C9.55323 32.6666 9.01451 32.5456 8.53734 32.32L7.3974 34.7307ZM10.1052 29.8839C10.0557 29.8839 10.0122 29.8728 9.97992 29.8575L8.8403 32.2684C9.23709 32.456 9.67115 32.5507 10.1064 32.5505L10.1052 29.8839ZM9.97992 29.8575C9.94793 29.8424 9.93542 29.8275 9.93397 29.8256L7.81517 31.4448C8.08814 31.802 8.44325 32.0807 8.8403 32.2684L9.97992 29.8575ZM9.93397 29.8256C9.93338 29.8248 9.93534 29.8272 9.9379 29.8334C9.94048 29.8395 9.94322 29.8484 9.94468 29.8596L7.30051 30.2053C7.36018 30.6617 7.54144 31.0866 7.81517 31.4448L9.93397 29.8256ZM9.94468 29.8596C9.94786 29.884 9.94343 29.9057 9.93764 29.9193L7.48688 28.8681C7.30675 29.2881 7.24077 29.7483 7.30051 30.2053L9.94468 29.8596ZM7.3356 22.3599C7.6185 22.4434 7.76501 22.4887 7.86325 22.522L8.71894 19.9964C8.56531 19.9443 8.37324 19.8858 8.09046 19.8023L7.3356 22.3599ZM7.86095 22.5212C7.90368 22.5358 7.90904 22.5388 7.89116 22.5314C7.88638 22.5294 7.87698 22.5255 7.86435 22.5198C7.85842 22.5172 7.84789 22.5124 7.83464 22.506C7.82823 22.5029 7.81723 22.4976 7.80363 22.4906C7.79806 22.4877 7.76055 22.4687 7.71502 22.4407C7.71395 22.44 7.61586 22.3825 7.51268 22.288C7.48143 22.2594 7.4225 22.2029 7.35972 22.1219C7.3132 22.0619 7.17173 21.8733 7.10979 21.5848C7.0292 21.2095 7.10324 20.7062 7.5007 20.3329C7.79848 20.0533 8.12666 19.999 8.22498 19.985C8.44983 19.9529 8.62916 19.989 8.64662 19.9921C8.70366 20.0023 8.74786 20.014 8.76875 20.0198C8.81293 20.032 8.84675 20.0439 8.85935 20.0484C8.90733 20.0654 8.94408 20.0818 8.94718 20.0831C8.97097 20.0936 8.98975 20.1027 9.00222 20.1089L7.81119 22.4948C7.82831 22.5034 7.8507 22.5141 7.8768 22.5256C7.88104 22.5274 7.91861 22.5441 7.96705 22.5613C7.97976 22.5658 8.01367 22.5778 8.05792 22.59C8.07885 22.5958 8.12308 22.6075 8.18014 22.6177C8.19762 22.6208 8.37696 22.657 8.60183 22.6249C8.70015 22.6108 9.02834 22.5565 9.32612 22.2769C9.72358 21.9037 9.79762 21.4003 9.71703 21.025C9.65509 20.7365 9.51362 20.5479 9.46709 20.4879C9.40431 20.4069 9.34537 20.3504 9.31412 20.3218C9.21091 20.2272 9.11277 20.1697 9.11162 20.169C9.06594 20.1409 9.02818 20.1217 9.02225 20.1187C9.0083 20.1115 8.99684 20.1059 8.98985 20.1026C8.97546 20.0956 8.96336 20.0901 8.95538 20.0866C8.93866 20.0791 8.9233 20.0725 8.91039 20.0672C8.85999 20.0464 8.79826 20.0234 8.72124 19.9971L7.86095 22.5212ZM10.6781 17.7657C10.1262 17.461 9.47145 17.283 9.07418 17.1641L8.30905 19.7186C8.82842 19.8742 9.1481 19.9671 9.38899 20.1001L10.6781 17.7657ZM7.44142 17.9779L6.46284 20.6176L8.96323 21.5446L9.94181 18.9048L7.44142 17.9779ZM12.5095 23.9081C12.6573 23.5643 12.9378 22.9608 13.0338 22.3405L10.3985 21.9328C10.3664 22.1398 10.2629 22.3822 10.0597 22.8547L12.5095 23.9081ZM9.97341 21.9057C9.97286 21.9106 9.97241 21.9143 9.97225 21.9156C9.97158 21.9212 9.9728 21.9112 9.97351 21.905C9.97394 21.9012 9.97537 21.8888 9.97682 21.8729C9.97711 21.8696 9.98269 21.8138 9.98227 21.744C9.98219 21.7319 9.98387 21.5977 9.9441 21.4351C9.93119 21.3823 9.86751 21.1094 9.63418 20.8535C9.49629 20.7023 9.27144 20.528 8.95174 20.4534C8.62856 20.3781 8.34223 20.4359 8.13915 20.5199C7.79976 20.6603 7.62178 20.9 7.58834 20.9439C7.5254 21.0265 7.48613 21.0984 7.46896 21.131C7.43263 21.2001 7.41067 21.2571 7.40408 21.2742C7.38758 21.3172 7.37694 21.3519 7.37507 21.358C7.37131 21.3701 7.36851 21.3798 7.36743 21.3835C7.36612 21.3881 7.36509 21.3917 7.36466 21.3932C7.36421 21.3948 7.36378 21.3964 7.3637 21.3967C7.36333 21.398 7.36395 21.3958 7.36471 21.3932C7.3684 21.3804 7.36722 21.3863 7.35594 21.4178L9.86625 22.3175C9.8942 22.2395 9.91263 22.1814 9.92562 22.1367C9.9287 22.1261 9.931 22.1178 9.9318 22.115C9.94727 22.0597 9.92288 22.1537 9.8936 22.2299C9.88705 22.247 9.86513 22.3039 9.82882 22.3729C9.81166 22.4055 9.77241 22.4774 9.70948 22.56C9.67606 22.6039 9.49809 22.8435 9.1587 22.9839C8.95563 23.068 8.66931 23.1258 8.34613 23.0504C8.02643 22.9759 7.80158 22.8015 7.6637 22.6503C7.43038 22.3944 7.36671 22.1215 7.3538 22.0687C7.31404 21.9062 7.31572 21.7721 7.31565 21.76C7.31523 21.6904 7.32078 21.6349 7.32105 21.632C7.32246 21.6164 7.32384 21.6044 7.32421 21.6012C7.3248 21.596 7.32585 21.5874 7.32497 21.5947C7.3246 21.5977 7.32391 21.6035 7.32311 21.6107L9.97341 21.9057ZM7.37127 21.3771C7.3093 21.5338 7.24424 21.6895 7.17612 21.8442L9.61666 22.9188C9.69838 22.7332 9.77647 22.5463 9.85092 22.3582L7.37127 21.3771ZM7.9602 23.6415L10.8485 24.6414L11.7208 22.1214L8.83257 21.1215L7.9602 23.6415ZM7.76258 22.4693C7.63477 22.3988 7.51027 22.284 7.4243 22.1216L9.78117 20.8741C9.60945 20.5497 9.34877 20.2988 9.05084 20.1344L7.76258 22.4693ZM7.4243 22.1216C7.33709 21.9569 7.29999 21.7609 7.32929 21.563L9.96722 21.9534C10.0228 21.5776 9.95412 21.2009 9.78117 20.8741L7.4243 22.1216ZM13.0342 22.3377C13.173 21.4275 13.0128 20.5059 12.5845 19.6904L10.2236 20.9303C10.3927 21.2523 10.4493 21.5997 10.398 21.9356L13.0342 22.3377ZM12.5845 19.6904C12.1574 18.8773 11.4887 18.2151 10.68 17.7668L9.38714 20.0991C9.76972 20.3112 10.0532 20.606 10.2236 20.9303L12.5845 19.6904ZM-1.33333 15.7181C-1.33333 18.2087 0.43025 20.2912 2.83846 21.0117L3.60283 18.4569C2.16691 18.0273 1.33333 16.8746 1.33333 15.7181H-1.33333ZM4.5834 15.8171C4.50455 15.7936 4.4602 15.7553 4.4416 15.7321L2.36175 17.401C2.73965 17.872 3.25481 18.2031 3.81918 18.372L4.5834 15.8171ZM4.4416 15.7321C4.43274 15.7211 4.43009 15.7142 4.42966 15.713C4.42928 15.7119 4.43011 15.714 4.43011 15.7181L1.76344 15.718C1.76341 16.3389 1.9818 16.9275 2.36175 17.401L4.4416 15.7321ZM4.43011 15.7181C4.43011 15.7175 4.43009 15.7189 4.42958 15.7209C4.42913 15.7226 4.42903 15.722 4.4308 15.7187C4.43462 15.7117 4.44814 15.6914 4.48081 15.6677C4.54903 15.6181 4.66232 15.582 4.79571 15.6079L5.3039 12.9901C3.64945 12.6689 1.76344 13.7895 1.76344 15.7181H4.43011ZM5.95062 10.2702C5.08795 10.1038 4.19788 10.1128 3.33916 10.2968L3.89783 12.9043C4.406 12.7954 4.93428 12.79 5.44551 12.8886L5.95062 10.2702ZM3.33916 10.2968C2.48037 10.4808 1.66912 10.8369 0.966839 11.3468L2.53359 13.5046C2.92429 13.221 3.38972 13.0132 3.89783 12.9043L3.33916 10.2968ZM0.966839 11.3468C0.264183 11.8569 -0.314766 12.5108 -0.717235 13.2679L1.6374 14.5196C1.84061 14.1374 2.14326 13.788 2.53359 13.5046L0.966839 11.3468ZM-0.717235 13.2679C-1.12016 14.0259 -1.33327 14.8635 -1.33333 15.718L1.33333 15.7182C1.33337 15.31 1.43466 14.901 1.6374 14.5196L-0.717235 13.2679ZM16.7867 32.6377C17.3198 33.476 18.0774 34.1573 18.9743 34.625L20.2073 32.2605C19.7047 31.9985 19.3065 31.6306 19.0368 31.2066L16.7867 32.6377ZM18.9743 34.625C19.8693 35.0917 20.8761 35.3331 21.8942 35.3332L21.8942 32.6665C21.2942 32.6665 20.7118 32.5236 20.2073 32.2605L18.9743 34.625ZM21.8942 29.8839C21.8399 29.8839 21.7948 29.8705 21.7636 29.8542C21.7322 29.8377 21.7243 29.8237 21.7263 29.8269L19.4732 31.2533C20.0038 32.0914 20.9429 32.5505 21.8942 32.5505V29.8839ZM33.3333 15.7178C33.3332 14.8636 33.1201 14.0263 32.7173 13.2685L30.3627 14.5201C30.5653 14.9014 30.6666 15.3103 30.6667 15.7183L33.3333 15.7178ZM32.7173 13.2685C32.315 12.5116 31.7363 11.8579 31.034 11.3478L29.4669 13.5054C29.857 13.7887 30.1595 14.138 30.3627 14.5201L32.7173 13.2685ZM31.034 11.3478C30.332 10.8379 29.5211 10.4818 28.6626 10.2976L28.1032 12.9049C28.6111 13.0139 29.0764 13.2217 29.4669 13.5054L31.034 11.3478ZM28.6626 10.2976C27.8042 10.1134 26.9103 10.1041 26.0478 10.2701L26.5519 12.8887C27.0631 12.7903 27.5953 12.7959 28.1032 12.9049L28.6626 10.2976ZM27.2046 15.6082C27.2642 15.5967 27.325 15.5974 27.384 15.61L27.9433 13.0027C27.5339 12.9148 27.1112 12.9104 26.6999 12.9897L27.2046 15.6082ZM27.384 15.61C27.4429 15.6226 27.4887 15.6451 27.5202 15.668L29.0877 13.5107C28.7447 13.2614 28.353 13.0905 27.9433 13.0027L27.384 15.61ZM27.5202 15.668C27.5512 15.6906 27.5641 15.7102 27.5683 15.718L29.9235 14.4675C29.7203 14.0846 29.4311 13.7603 29.0877 13.5107L27.5202 15.668ZM27.5683 15.718C27.5703 15.7219 27.5706 15.7235 27.5704 15.7228C27.5703 15.722 27.5699 15.7201 27.5699 15.7173L30.2366 15.7188C30.2368 15.2793 30.1272 14.8511 29.9235 14.4675L27.5683 15.718Z" fill="#333333" mask="url(#path-2-inside-1_4_255)"/>
</svg>
