<svg width="32" height="32" viewBox="0 0 32 32" fill="none" xmlns="http://www.w3.org/2000/svg">
<path d="M9.6 7.9729C9.17565 7.9729 8.76869 8.14147 8.46863 8.44153C8.16857 8.74159 8 9.14855 8 9.5729C8 9.99725 8.16857 10.4042 8.46863 10.7043C8.76869 11.0043 9.17565 11.1729 9.6 11.1729H22.4C22.8243 11.1729 23.2313 11.0043 23.5314 10.7043C23.8314 10.4042 24 9.99725 24 9.5729C24 9.14855 23.8314 8.74159 23.5314 8.44153C23.2313 8.14147 22.8243 7.9729 22.4 7.9729H9.6ZM8 16.0001C8 15.5758 8.16857 15.1688 8.46863 14.8687C8.76869 14.5687 9.17565 14.4001 9.6 14.4001H22.4C22.8243 14.4001 23.2313 14.5687 23.5314 14.8687C23.8314 15.1688 24 15.5758 24 16.0001C24 16.4244 23.8314 16.8314 23.5314 17.1315C23.2313 17.4315 22.8243 17.6001 22.4 17.6001H9.6C9.17565 17.6001 8.76869 17.4315 8.46863 17.1315C8.16857 16.8314 8 16.4244 8 16.0001ZM9.6 20.8273C9.17565 20.8273 8.76869 20.9959 8.46863 21.2959C8.16857 21.596 8 22.003 8 22.4273C8 22.8516 8.16857 23.2586 8.46863 23.5587C8.76869 23.8587 9.17565 24.0273 9.6 24.0273H22.4C22.8243 24.0273 23.2313 23.8587 23.5314 23.5587C23.8314 23.2586 24 22.8516 24 22.4273C24 22.003 23.8314 21.596 23.5314 21.2959C23.2313 20.9959 22.8243 20.8273 22.4 20.8273H9.6Z" fill="white"/>
<path fill-rule="evenodd" clip-rule="evenodd" d="M32 16C32 24.8368 24.8368 32 16 32C7.1632 32 0 24.8368 0 16C0 7.1632 7.1632 0 16 0C24.8368 0 32 7.1632 32 16ZM28.8 16C28.8 19.3948 27.4514 22.6505 25.051 25.051C22.6505 27.4514 19.3948 28.8 16 28.8C12.6052 28.8 9.3495 27.4514 6.94903 25.051C4.54857 22.6505 3.2 19.3948 3.2 16C3.2 12.6052 4.54857 9.3495 6.94903 6.94903C9.3495 4.54857 12.6052 3.2 16 3.2C19.3948 3.2 22.6505 4.54857 25.051 6.94903C27.4514 9.3495 28.8 12.6052 28.8 16Z" fill="white"/>
</svg>
