<svg width="28" height="20" viewBox="0 0 28 20" fill="none" xmlns="http://www.w3.org/2000/svg">
<path d="M3.33333 2L7.66 17.1758C7.72643 17.4092 7.86573 17.6151 8.05747 17.7634C8.24921 17.9117 8.48331 17.9945 8.72545 17.9997C8.96759 18.005 9.20503 17.9323 9.40297 17.7925C9.60091 17.6526 9.74893 17.4529 9.82533 17.2226L14 4.67227L18.1747 17.2226C18.2511 17.4529 18.3991 17.6526 18.597 17.7925C18.795 17.9323 19.0324 18.005 19.2746 17.9997C19.5167 17.9945 19.7508 17.9117 19.9425 17.7634C20.1343 17.6151 20.2736 17.4092 20.34 17.1758L24.6667 2M26 7.34453H2M26 12.6891H2" stroke="#333333" stroke-width="2.66667" stroke-linecap="round" stroke-linejoin="round"/>
</svg>
