<svg width="32" height="32" viewBox="0 0 32 32" fill="none" xmlns="http://www.w3.org/2000/svg">
<path d="M16 0.5C24.8368 0.5 32 7.43935 32 16C32 24.5606 24.8368 31.5 16 31.5C7.1632 31.5 0 24.5606 0 16C0 7.43935 7.1632 0.5 16 0.5ZM16 3.6C12.6052 3.6 9.3495 4.90642 6.94903 7.23188C4.54857 9.55733 3.2 12.7113 3.2 16C3.2 19.2887 4.54857 22.4427 6.94903 24.7681C9.3495 27.0936 12.6052 28.4 16 28.4C19.3948 28.4 22.6505 27.0936 25.051 24.7681C27.4514 22.4427 28.8 19.2887 28.8 16C28.8 12.7113 27.4514 9.55733 25.051 7.23188C22.6505 4.90642 19.3948 3.6 16 3.6ZM20.848 10.9733C20.9469 10.5897 21.1935 10.2573 21.5372 10.044C21.8809 9.83066 22.2957 9.75267 22.6968 9.82594C23.0979 9.89922 23.4549 10.1182 23.6948 10.4381C23.9347 10.758 24.0393 11.1547 23.9872 11.5468L23.952 11.7266L23.648 12.9H24C24.4078 12.9004 24.8001 13.0517 25.0966 13.3229C25.3931 13.5941 25.5716 13.9648 25.5955 14.3592C25.6194 14.7535 25.4869 15.1419 25.2252 15.4448C24.9634 15.7478 24.5922 15.9425 24.1872 15.9891L24 16H22.848L22.448 17.55H24C24.4078 17.5504 24.8001 17.7017 25.0966 17.9729C25.3931 18.2441 25.5716 18.6148 25.5955 19.0092C25.6194 19.4035 25.4869 19.7919 25.2252 20.0948C24.9634 20.3978 24.5922 20.5925 24.1872 20.6391L24 20.65H21.648L20.8848 23.6105C20.4752 25.1977 18.2528 25.3434 17.584 23.9205L17.5088 23.7345L16 19.3511L14.4912 23.7345C13.9568 25.2891 11.7296 25.269 11.1744 23.8012L11.1152 23.6089L10.3504 20.65H8C7.59219 20.6496 7.19995 20.4983 6.90341 20.2271C6.60687 19.9559 6.42842 19.5852 6.40453 19.1908C6.38063 18.7965 6.51308 18.4081 6.77482 18.1052C7.03657 17.8022 7.40785 17.6075 7.8128 17.5608L8 17.55H9.552L9.152 16H8C7.59219 15.9996 7.19995 15.8483 6.90341 15.5771C6.60687 15.3059 6.42842 14.9352 6.40453 14.5408C6.38063 14.1465 6.51308 13.7581 6.77482 13.4552C7.03657 13.1522 7.40785 12.9575 7.8128 12.9108L8 12.9H8.352L8.048 11.7266C7.9498 11.3434 8.00629 10.9383 8.20597 10.594C8.40564 10.2497 8.73342 9.99225 9.1224 9.87416C9.51138 9.75607 9.93222 9.78626 10.299 9.95856C10.6658 10.1309 10.9508 10.4323 11.096 10.8013L11.152 10.9733L13.0192 18.2103L14.4816 13.9602C14.5826 13.6658 14.7724 13.4075 15.0265 13.2188C15.2806 13.0301 15.5873 12.9195 15.907 12.9015C16.2267 12.8835 16.5446 12.9588 16.8196 13.1177C17.0946 13.2766 17.3141 13.5118 17.4496 13.7928L17.5184 13.9602L18.9808 18.2103L20.848 10.9733Z" fill="#333333"/>
</svg>
