<svg width="28" height="24" viewBox="0 0 28 24" fill="none" xmlns="http://www.w3.org/2000/svg">
<path d="M25.7892 20.4314C26.1943 20.4316 26.5788 20.5813 26.8642 20.842C27.1487 21.1019 27.3123 21.4507 27.3305 21.814C27.3488 22.1771 27.221 22.5378 26.9655 22.8208C26.7122 23.1015 26.3515 23.2846 25.954 23.3249L25.7739 23.3333H2.21084C1.80573 23.3331 1.42116 23.1834 1.13579 22.9227C0.851283 22.6628 0.687721 22.314 0.669476 21.9507C0.651239 21.5876 0.778969 21.2269 1.03448 20.9439C1.28785 20.6632 1.64854 20.4801 2.04596 20.4398L2.22602 20.4314H25.7892ZM25.7895 10.549C26.2079 10.549 26.6038 10.7085 26.8914 10.984C27.1779 11.2585 27.3333 11.6246 27.3333 12C27.3333 12.3754 27.1779 12.7415 26.8914 13.016C26.6038 13.2915 26.2079 13.451 25.7895 13.451H2.21053C1.79206 13.451 1.39618 13.2915 1.10863 13.016C0.822054 12.7415 0.666667 12.3754 0.666667 12C0.666667 11.6246 0.822054 11.2585 1.10863 10.984C1.39618 10.7085 1.79206 10.549 2.21053 10.549H25.7895ZM25.7895 0.666667C26.2079 0.666667 26.6038 0.826186 26.8914 1.10165C27.1779 1.37619 27.3333 1.74228 27.3333 2.11765C27.3333 2.49301 27.1779 2.8591 26.8914 3.13364C26.6038 3.40911 26.2079 3.56863 25.7895 3.56863H2.21053C1.79206 3.56863 1.39618 3.40911 1.10863 3.13364C0.822054 2.85911 0.666667 2.49301 0.666667 2.11765C0.666667 1.74228 0.822054 1.37619 1.10863 1.10165C1.39618 0.826187 1.79206 0.666667 2.21053 0.666667H25.7895Z" fill="white" stroke="white" stroke-width="1.33333"/>
</svg>
