<svg width="18" height="33" viewBox="0 0 18 33" fill="none" xmlns="http://www.w3.org/2000/svg">
<path d="M0.688318 1.30203C0.247587 1.75317 0 2.36497 0 3.00289C0 3.6408 0.247587 4.2526 0.688318 4.70375L12.3254 16.6122L0.688318 28.5206C0.260078 28.9743 0.023119 29.582 0.0284748 30.2128C0.0338306 30.8436 0.281075 31.447 0.716955 31.893C1.15283 32.3391 1.74248 32.5921 2.35888 32.5976C2.97528 32.603 3.56913 32.3606 4.01252 31.9223L17.3117 18.313C17.7524 17.8619 18 17.2501 18 16.6122C18 15.9743 17.7524 15.3625 17.3117 14.9113L4.01252 1.30203C3.57166 0.851018 2.9738 0.597656 2.35042 0.597656C1.72704 0.597656 1.12918 0.851018 0.688318 1.30203Z" fill="#7FB700"/>
</svg>
