<svg width="18" height="33" viewBox="0 0 18 33" fill="none" xmlns="http://www.w3.org/2000/svg">
<path d="M17.3117 31.8933C17.7524 31.4421 18 30.8303 18 30.1924C18 29.5545 17.7524 28.9427 17.3117 28.4916L5.67462 16.5831L17.3117 4.6747C17.7399 4.22097 17.9769 3.61327 17.9715 2.98249C17.9662 2.35172 17.7189 1.74832 17.283 1.30228C16.8472 0.856236 16.2575 0.603228 15.6411 0.597748C15.0247 0.592266 14.4309 0.834751 13.9875 1.27298L0.688318 14.8823C0.247588 15.3334 0 15.9452 0 16.5831C0 17.221 0.247588 17.8328 0.688318 18.284L13.9875 31.8933C14.4283 32.3443 15.0262 32.5977 15.6496 32.5977C16.273 32.5977 16.8708 32.3443 17.3117 31.8933Z" fill="#7FB700"/>
</svg>
