<svg width="38" height="32" viewBox="0 0 38 32" fill="none" xmlns="http://www.w3.org/2000/svg">
<path d="M-7.02653e-07 16.0748C-7.37432e-07 16.8705 0.324638 17.6335 0.902492 18.1962C1.48035 18.7588 2.26409 19.0748 3.0813 19.0748L27.4852 19.0748L19.3917 26.9548C18.8474 27.5235 18.5511 28.2757 18.5651 29.0529C18.5792 29.8301 18.9026 30.5717 19.4672 31.1213C20.0317 31.671 20.7933 31.9858 21.5916 31.9995C22.3899 32.0132 23.1624 31.7247 23.7466 31.1948L37.0989 18.1948C37.6759 17.6323 38 16.8698 38 16.0748C38 15.2798 37.6759 14.5173 37.0989 13.9548L23.7466 0.954832C23.4645 0.660085 23.1243 0.423677 22.7463 0.259709C22.3683 0.0957409 21.9603 0.00757332 21.5466 0.000466168C21.1329 -0.00664099 20.7219 0.0674571 20.3382 0.218341C19.9546 0.369225 19.606 0.593803 19.3134 0.878678C19.0208 1.16355 18.7902 1.50289 18.6352 1.87644C18.4802 2.24999 18.4041 2.65011 18.4114 3.05292C18.4187 3.45573 18.5093 3.85299 18.6777 4.22098C18.8461 4.58898 19.0889 4.92018 19.3917 5.19483L27.4852 13.0748L3.0813 13.0748C1.38042 13.0748 -6.30267e-07 14.4188 -7.02653e-07 16.0748Z" fill="#7FB700"/>
</svg>
