<svg width="38" height="32" viewBox="0 0 38 32" fill="none" xmlns="http://www.w3.org/2000/svg">
<path d="M38 15.9252C38 15.1295 37.6754 14.3665 37.0975 13.8038C36.5197 13.2412 35.7359 12.9252 34.9187 12.9252L10.5148 12.9252L18.6083 5.04517C19.1526 4.47647 19.4489 3.72428 19.4349 2.94708C19.4208 2.16987 19.0974 1.42833 18.5328 0.87868C17.9683 0.329028 17.2067 0.0141775 16.4084 0.000464676C15.6101 -0.0132482 14.8376 0.275248 14.2534 0.805168L0.901136 13.8052C0.324109 14.3677 -7.37404e-07 15.1302 -7.02653e-07 15.9252C-6.67903e-07 16.7202 0.32411 17.4827 0.901137 18.0452L14.2534 31.0452C14.5355 31.3399 14.8757 31.5763 15.2537 31.7403C15.6317 31.9043 16.0397 31.9924 16.4534 31.9995C16.8671 32.0066 17.2781 31.9325 17.6618 31.7817C18.0454 31.6308 18.394 31.4062 18.6866 31.1213C18.9792 30.8364 19.2098 30.4971 19.3648 30.1236C19.5198 29.75 19.5959 29.3499 19.5886 28.9471C19.5813 28.5443 19.4907 28.147 19.3223 27.779C19.1539 27.411 18.9111 27.0798 18.6083 26.8052L10.5148 18.9252L34.9187 18.9252C36.6196 18.9252 38 17.5812 38 15.9252Z" fill="#7FB700"/>
</svg>
