<svg width="34" height="33" viewBox="0 0 34 33" fill="none" xmlns="http://www.w3.org/2000/svg">
<path d="M10.7562 26.2002C11.3772 26.2002 11.9727 26.453 12.4118 26.9031C12.8508 27.3532 13.0975 27.9636 13.0975 28.6001C13.0975 29.2366 12.8508 29.8471 12.4118 30.2971C11.9727 30.7472 11.3772 31.0001 10.7562 31.0001C10.1353 31.0001 9.53975 30.7472 9.10067 30.2971C8.66159 29.8471 8.41492 29.2366 8.41492 28.6001C8.41492 27.9636 8.66159 27.3532 9.10067 26.9031C9.53975 26.453 10.1353 26.2002 10.7562 26.2002ZM24.804 26.2002C25.425 26.2002 26.0205 26.453 26.4596 26.9031C26.8986 27.3532 27.1453 27.9636 27.1453 28.6001C27.1453 29.2366 26.8986 29.8471 26.4596 30.2971C26.0205 30.7472 25.425 31.0001 24.804 31.0001C24.1831 31.0001 23.5875 30.7472 23.1485 30.2971C22.7094 29.8471 22.4627 29.2366 22.4627 28.6001C22.4627 27.9636 22.7094 27.3532 23.1485 26.9031C23.5875 26.453 24.1831 26.2002 24.804 26.2002Z" stroke="#333333" stroke-width="2.5"/>
<path d="M2.5601 1.06801C2.26701 0.962355 1.94498 0.980368 1.66485 1.11809C1.38472 1.25581 1.16943 1.50197 1.06635 1.80239C0.963275 2.10282 0.980848 2.43292 1.11521 2.72007C1.24956 3.00722 1.4897 3.22789 1.78279 3.33355L2.5601 1.06801ZM31.2941 13.2133L32.4398 13.4549L32.4413 13.4485L31.2941 13.2133ZM7.95914 13.0165V8.66141H5.61784V13.0165H7.95914ZM2.96749 1.21521L2.5601 1.06801L1.78279 3.33355L2.19018 3.47915L2.96749 1.21521ZM16.1225 23.4002H24.3982V21.0003H16.1225V23.4002ZM7.95914 8.66141C7.95914 7.53024 7.9607 6.58626 7.8811 5.81989C7.79525 5.02471 7.61575 4.29993 7.17558 3.64074L5.24167 4.99431C5.38215 5.2055 5.49141 5.49669 5.55228 6.07748C5.61628 6.68546 5.61784 7.47744 5.61784 8.66141H7.95914ZM2.19018 3.47915C3.23284 3.85514 3.91806 4.10473 4.42222 4.36072C4.89516 4.59752 5.10431 4.78951 5.24167 4.99591L7.17558 3.64074C6.7323 2.97516 6.14073 2.54957 5.45239 2.20238C4.79682 1.87279 3.95708 1.572 2.96749 1.21521L2.19018 3.47915ZM5.61784 13.0165C5.61784 15.3412 5.63969 17.0164 5.85197 18.2963C6.08142 19.6627 6.53875 20.6419 7.38942 21.5635L9.08921 19.9123C8.58973 19.3715 8.3197 18.8435 8.16049 17.8916C7.98879 16.8516 7.95914 15.3988 7.95914 13.0165H5.61784ZM16.1225 21.0003C13.9107 21.0003 12.3764 20.9971 11.2198 20.8291C10.1038 20.6675 9.51532 20.3731 9.08921 19.9123L7.38942 21.5635C8.31658 22.5666 9.49191 23.0034 10.8904 23.205C12.2484 23.4034 13.9825 23.4002 16.1225 23.4002V21.0003ZM6.78849 8.39261H25.7218V5.99268H6.79005L6.78849 8.39261ZM30.1469 12.9701L29.3664 16.85L31.6609 17.3332L32.4398 13.4549L30.1469 12.9701ZM25.7249 8.39261C27.061 8.39261 28.2379 8.39421 29.1666 8.49981C29.6271 8.55421 29.9736 8.62781 30.2155 8.71421C30.4668 8.8054 30.5074 8.8742 30.4871 8.847L32.343 7.38464C31.9762 6.89506 31.4611 6.61826 30.9913 6.45027C30.4832 6.27906 29.9581 6.16637 29.4257 6.11428C28.3409 5.99108 27.0173 5.99268 25.7249 5.99268V8.39261ZM32.4413 13.4485C32.7067 12.0917 32.9314 10.9525 32.9861 10.0406C33.0438 9.103 32.9392 8.17822 32.343 7.38464L30.4871 8.847C30.5839 8.9766 30.69 9.20859 30.6495 9.89337C30.6073 10.6038 30.4247 11.5525 30.1469 12.9781L32.4413 13.4485ZM24.3982 23.4002C25.5876 23.4002 26.5865 23.4018 27.3919 23.301C28.227 23.197 28.9903 22.9666 29.6552 22.4114L28.1755 20.5507C27.9804 20.7139 27.7041 20.8451 27.1063 20.9187C26.4773 20.9987 25.6469 21.0003 24.3982 21.0003V23.4002ZM29.3695 16.85C29.1167 18.1028 28.9481 18.9347 28.7452 19.5507C28.5532 20.1363 28.3706 20.3875 28.1755 20.5507L29.6552 22.4114C30.3217 21.8546 30.6947 21.1363 30.9632 20.3171C31.2223 19.5299 31.4221 18.5283 31.6625 17.3348L29.3695 16.85Z" fill="#333333"/>
<path d="M2.57883 2.34798L2.96749 1.21521M2.96749 1.21521L2.5601 1.06801M2.96749 1.21521L2.19018 3.47915M2.96749 1.21521C3.95708 1.572 4.79682 1.87279 5.45239 2.20238C6.14073 2.54957 6.7323 2.97516 7.17558 3.64074M2.5601 1.06801C2.26701 0.962355 1.94498 0.980368 1.66485 1.11809C1.38472 1.25581 1.16943 1.50197 1.06635 1.80239C0.963275 2.10282 0.980848 2.43292 1.11521 2.72007C1.24956 3.00722 1.4897 3.22789 1.78279 3.33355M2.5601 1.06801L1.78279 3.33355M1.78279 3.33355L2.19018 3.47915M6.20785 4.31753L7.17558 3.64074M7.17558 3.64074C7.61575 4.29993 7.79525 5.02471 7.8811 5.81989C7.9607 6.58626 7.95914 7.53024 7.95914 8.66141M7.17558 3.64074L5.24167 4.99431C5.38215 5.2055 5.49141 5.49669 5.55228 6.07748C5.61628 6.68546 5.61784 7.47744 5.61784 8.66141M7.17558 3.64074L5.24167 4.99591C5.10431 4.78951 4.89516 4.59752 4.42222 4.36072C3.91806 4.10473 3.23284 3.85514 2.19018 3.47915M8.24009 20.7379L7.38942 21.5635M7.38942 21.5635C6.53875 20.6419 6.08142 19.6627 5.85197 18.2963C5.63969 17.0164 5.61784 15.3412 5.61784 13.0165M7.38942 21.5635L9.08921 19.9123M7.38942 21.5635C8.31658 22.5666 9.49191 23.0034 10.8904 23.205C12.2484 23.4034 13.9825 23.4002 16.1225 23.4002M32.4398 13.4549L31.2941 13.2133L32.4413 13.4485M32.4398 13.4549L32.4413 13.4485M32.4398 13.4549L31.6609 17.3332M32.4398 13.4549L30.1469 12.9701L29.3664 16.85L31.6609 17.3332M32.4413 13.4485C32.7067 12.0917 32.9314 10.9525 32.9861 10.0406C33.0438 9.103 32.9392 8.17822 32.343 7.38464M32.4413 13.4485L30.1469 12.9781C30.4247 11.5525 30.6073 10.6038 30.6495 9.89337C30.69 9.20859 30.5839 8.9766 30.4871 8.847M30.5137 17.0932L31.6609 17.3332M31.4127 8.11742L30.4856 8.847M28.9153 21.4803L28.1755 20.5507M28.1755 20.5507L29.6552 22.4114M28.1755 20.5507C27.9804 20.7139 27.7041 20.8451 27.1063 20.9187C26.4773 20.9987 25.6469 21.0003 24.3982 21.0003M28.1755 20.5507C28.3706 20.3875 28.5532 20.1363 28.7452 19.5507C28.9481 18.9347 29.1167 18.1028 29.3695 16.85L31.6625 17.3348C31.4221 18.5283 31.2223 19.5299 30.9632 20.3171C30.6947 21.1363 30.3217 21.8546 29.6552 22.4114M7.95914 13.0165V8.66141M7.95914 13.0165H5.61784M7.95914 13.0165C7.95914 15.3988 7.98879 16.8516 8.16049 17.8916C8.3197 18.8435 8.58973 19.3715 9.08921 19.9123M7.95914 8.66141H5.61784M5.61784 8.66141V13.0165M16.1225 23.4002H24.3982M16.1225 23.4002V21.0003M24.3982 23.4002V21.0003M24.3982 23.4002C25.5876 23.4002 26.5865 23.4018 27.3919 23.301C28.227 23.197 28.9903 22.9666 29.6552 22.4114M24.3982 21.0003H16.1225M16.1225 21.0003C13.9107 21.0003 12.3764 20.9971 11.2198 20.8291C10.1038 20.6675 9.51532 20.3731 9.08921 19.9123M30.4871 8.847C30.5074 8.8742 30.4668 8.8054 30.2155 8.71421C29.9736 8.62781 29.6271 8.55421 29.1666 8.49981C28.2379 8.39421 27.061 8.39261 25.7249 8.39261V5.99268C27.0173 5.99268 28.3409 5.99108 29.4257 6.11428C29.9581 6.16637 30.4832 6.27906 30.9913 6.45027C31.4611 6.61826 31.9762 6.89506 32.343 7.38464M30.4871 8.847L32.343 7.38464M6.78849 8.39261H25.7218V5.99268H6.79005L6.78849 8.39261Z" stroke="#333333" stroke-width="0.5"/>
<path d="M24.804 7.80066L22.4627 21.4003M13.0975 7.80066L15.4388 21.4003" stroke="#333333" stroke-width="3" stroke-linecap="round"/>
</svg>
