<svg width="300" height="60" viewBox="0 0 300 60" fill="none" xmlns="http://www.w3.org/2000/svg">
<path d="M29.4034 15.9393C33.4517 15.9393 37.2869 18.2163 39.4176 21.4042L39.6307 21.6319C39.7372 21.7457 39.8438 21.8596 39.8438 21.9734C41.2287 23.9089 43.4659 25.0474 45.9162 25.0474C50.1776 25.0474 53.6932 21.2903 53.6932 16.7362C53.6932 14.5731 52.9474 12.6376 51.669 11.1575C46.3423 4.09868 39.9503 0 29.2969 0C12.571 0 0 12.4099 0 29.8292C0 47.4763 12.571 59.8861 29.4034 59.8861C40.1634 59.8861 46.4489 55.9013 51.7756 49.5256C52.9474 48.0455 53.6932 46.2239 53.6932 44.1746C53.6932 39.6205 50.2841 35.9772 46.0227 35.9772C43.679 35.9772 41.6548 37.1157 40.2699 38.8235C37.7131 41.556 34.8366 44.1746 29.5099 44.1746C21.8395 44.1746 17.4716 38.2543 17.4716 29.8292C17.3651 21.7457 21.6264 15.9393 29.4034 15.9393ZM101.953 3.75712C99.2898 2.27704 97.4787 1.93548 93.5369 2.27704C86.5057 2.96015 81.0724 8.19735 80.1136 9.44972C79.794 4.66794 76.0653 0.796965 71.4844 0.796965C66.6903 0.796965 62.8551 4.89564 62.7486 9.90512V50.5503C62.8551 55.5598 66.6903 59.5446 71.4844 59.5446C76.2784 59.5446 80.1136 55.4459 80.2202 50.4364V39.3928C80.2202 24.3643 88.4233 20.4934 93.0043 20.3795C94.1761 20.3795 97.2656 21.6319 99.7159 21.1765C104.51 20.2657 107.599 15.37 106.747 10.3605C106.108 7.40038 104.297 5.00949 101.953 3.75712ZM140.092 44.63C147.656 44.63 152.131 38.7097 152.237 30.1708C152.237 21.518 147.656 15.7116 140.092 15.7116C132.528 15.7116 127.841 21.518 127.841 30.1708C127.841 38.5958 132.528 44.63 140.092 44.63ZM140.092 0C156.712 0 169.602 12.5237 169.602 30.0569C169.602 47.4763 156.712 59.8861 140.092 59.8861C123.473 59.8861 110.476 47.4763 110.476 30.0569C110.476 12.5237 123.473 0 140.092 0ZM207.955 15.9393C212.003 15.9393 215.838 18.2163 217.969 21.4042L218.182 21.6319C218.288 21.7457 218.395 21.8596 218.395 21.9734C219.78 23.9089 222.017 25.0474 224.467 25.0474C228.729 25.0474 232.244 21.2903 232.244 16.7362C232.244 14.5731 231.499 12.6376 230.22 11.1575C224.893 4.09868 218.501 0 207.955 0C191.229 0 178.551 12.4099 178.551 29.8292C178.551 47.4763 191.122 59.8861 207.955 59.8861C218.714 59.8861 225 55.9013 230.327 49.5256C231.499 48.0455 232.244 46.2239 232.244 44.1746C232.244 39.6205 228.835 35.9772 224.574 35.9772C222.23 35.9772 220.206 37.1157 218.821 38.8235C216.264 41.556 213.388 44.1746 207.955 44.1746C200.284 44.1746 195.916 38.2543 195.916 29.8292C196.023 21.7457 200.284 15.9393 207.955 15.9393ZM267.72 22.7704C275.497 24.7059 285.298 28.5769 285.298 40.8729C285.298 51.3472 280.185 60 263.246 60C252.912 60 246.2 56.5844 241.513 52.1442L241.193 51.8027C240.98 51.6888 240.874 51.4611 240.767 51.3472C240.661 51.2334 240.554 51.0057 240.447 50.8918C240.234 50.6641 240.128 50.4364 240.021 50.2087C240.021 50.2087 239.915 50.0949 239.915 49.981C238.53 47.2486 238.849 43.833 240.98 41.556C243.537 38.7097 247.798 38.5958 250.462 41.2144L250.355 41.1006C253.764 43.9469 257.812 45.6546 262.18 45.6546C267.72 45.6546 269.531 44.5161 269.531 42.1252C269.531 38.9374 266.122 38.9374 257.386 36.5465C250.036 34.4972 241.832 30.1708 241.832 18.2163C241.832 5.23719 251.101 0 262.607 0C271.449 0 277.734 3.07401 282.102 7.85579C283.487 9.10816 284.339 11.0436 284.339 13.093C284.339 17.0778 281.357 20.2657 277.628 20.2657C275.817 20.2657 274.219 19.5825 273.047 18.3302C270.49 16.0531 266.761 14.0038 262.713 14.0038C258.878 14.0038 256.96 15.1423 256.96 17.4194C256.96 20.6072 260.369 21.0626 267.72 22.7704ZM291.051 2.8463V1.36622H285.405V2.8463H287.429V8.7666H289.134V2.8463H291.051ZM298.402 8.7666V3.52941L296.591 8.7666H295.419L293.608 3.52941V8.7666H292.01V1.36622H294.354L296.058 6.26186L297.763 1.36622H300V8.7666H298.402Z" fill="black"/>
</svg>
