<svg width="32" height="32" viewBox="0 0 32 32" fill="none" xmlns="http://www.w3.org/2000/svg">
<path d="M16.3254 5.33301C17.0374 5.33701 18.8187 5.35434 20.7121 5.43034L21.3841 5.45967C23.2894 5.54901 25.1934 5.70367 26.1387 5.96634C27.3987 6.32101 28.3881 7.35301 28.7227 8.66234C29.2561 10.7423 29.3227 14.7983 29.3307 15.781L29.3321 15.9837V16.2157C29.3228 17.1983 29.2561 21.2557 28.7227 23.3343C28.3841 24.6477 27.3934 25.681 26.1387 26.0303C25.1934 26.293 23.2894 26.4477 21.3841 26.537L20.7121 26.5677C18.8187 26.6423 17.0374 26.661 16.3254 26.6637L16.0121 26.665H15.6721C14.1654 26.6557 7.86408 26.5877 5.85875 26.0303C4.60008 25.6757 3.60941 24.6437 3.27475 23.3343C2.74141 21.2543 2.67475 17.1983 2.66675 16.2157V15.781C2.67475 14.7983 2.74141 10.741 3.27475 8.66234C3.61341 7.34901 4.60408 6.31567 5.86008 5.96767C7.86408 5.40901 14.1667 5.34101 15.6734 5.33301H16.3254ZM13.3321 11.333V20.6663L21.3321 15.9997L13.3321 11.333Z" fill="#333333"/>
</svg>
