<svg width="32" height="32" viewBox="0 0 32 32" fill="none" xmlns="http://www.w3.org/2000/svg">
<path d="M15.9999 4C23.7332 4 30.0012 8.88533 30.0012 14.9133C30.0012 20.94 23.7332 25.8253 16.0012 25.8253C15.2314 25.824 14.4624 25.775 13.6986 25.6787L7.82122 29.5227C7.15322 29.876 6.91722 29.8373 7.19189 28.972L8.38122 24.068C4.54122 22.1213 2.00122 18.748 2.00122 14.9133C2.00122 8.88667 8.26789 4 16.0012 4M23.8786 14.7467L25.8386 12.848C25.9517 12.7305 26.0147 12.5738 26.0145 12.4107C26.0144 12.2477 25.9509 12.0911 25.8375 11.9739C25.7241 11.8567 25.5697 11.7881 25.4067 11.7825C25.2438 11.7769 25.085 11.8348 24.9639 11.944L22.3932 14.432V12.376C22.3932 12.2091 22.3269 12.049 22.2089 11.931C22.0909 11.813 21.9308 11.7467 21.7639 11.7467C21.597 11.7467 21.4369 11.813 21.3189 11.931C21.2009 12.049 21.1346 12.2091 21.1346 12.376V15.7853C21.1124 15.8828 21.1124 15.9839 21.1346 16.0813V18C21.1346 18.1669 21.2009 18.327 21.3189 18.445C21.4369 18.563 21.597 18.6293 21.7639 18.6293C21.9308 18.6293 22.0909 18.563 22.2089 18.445C22.3269 18.327 22.3932 18.1669 22.3932 18V16.1827L22.9626 15.632L24.8666 18.3427C24.9141 18.4103 24.9745 18.468 25.0443 18.5123C25.1141 18.5567 25.192 18.5868 25.2735 18.601C25.3549 18.6153 25.4384 18.6133 25.5191 18.5953C25.5998 18.5773 25.6762 18.5435 25.7439 18.496C25.8116 18.4485 25.8692 18.3881 25.9135 18.3182C25.9579 18.2484 25.988 18.1706 26.0023 18.0891C26.0165 18.0076 26.0145 17.9241 25.9965 17.8434C25.9785 17.7627 25.9448 17.6863 25.8972 17.6187L23.8786 14.7467ZM19.9346 17.312H17.9879V12.396C17.9804 12.2343 17.9109 12.0816 17.7939 11.9698C17.6768 11.858 17.5211 11.7956 17.3592 11.7956C17.1973 11.7956 17.0417 11.858 16.9246 11.9698C16.8075 12.0816 16.738 12.2343 16.7306 12.396V17.9413C16.7306 18.288 17.0106 18.5707 17.3586 18.5707H19.9346C20.1015 18.5707 20.2615 18.5044 20.3796 18.3863C20.4976 18.2683 20.5639 18.1082 20.5639 17.9413C20.5639 17.7744 20.4976 17.6144 20.3796 17.4963C20.2615 17.3783 20.1015 17.312 19.9346 17.312ZM12.1252 15.8573L13.0532 13.58L13.9039 15.856L12.1252 15.8573ZM15.4892 16.5067L15.4919 16.4853C15.4914 16.3268 15.4309 16.1744 15.3226 16.0587L13.9279 12.3253C13.8694 12.1474 13.7581 11.9916 13.6087 11.8787C13.4593 11.7657 13.279 11.7011 13.0919 11.6933C12.9036 11.6932 12.7196 11.7501 12.5643 11.8565C12.4089 11.9629 12.2893 12.1138 12.2212 12.2893L10.0052 17.7227C9.9421 17.8772 9.94295 18.0505 10.0076 18.2044C10.0722 18.3583 10.1954 18.4802 10.3499 18.5433C10.5044 18.6065 10.6777 18.6056 10.8316 18.541C10.9855 18.4763 11.1074 18.3532 11.1706 18.1987L11.6132 17.1147H14.3732L14.7706 18.1813C14.7977 18.2611 14.8405 18.3345 14.8965 18.3974C14.9525 18.4603 15.0206 18.5113 15.0967 18.5474C15.1728 18.5835 15.2553 18.6039 15.3395 18.6075C15.4236 18.6111 15.5076 18.5978 15.5865 18.5684C15.6654 18.5389 15.7376 18.4939 15.7988 18.4361C15.86 18.3782 15.9089 18.3087 15.9427 18.2316C15.9766 18.1544 15.9946 18.0713 15.9957 17.9871C15.9968 17.9029 15.981 17.8193 15.9492 17.7413L15.4892 16.5067ZM11.0586 12.4027C11.0589 12.32 11.0429 12.2382 11.0115 12.1617C10.9801 12.0853 10.9339 12.0158 10.8755 11.9573C10.8171 11.8989 10.7478 11.8525 10.6714 11.8209C10.595 11.7893 10.5132 11.7732 10.4306 11.7733H6.10389C5.93698 11.7733 5.7769 11.8396 5.65888 11.9577C5.54086 12.0757 5.47455 12.2358 5.47455 12.4027C5.47455 12.5696 5.54086 12.7297 5.65888 12.8477C5.7769 12.9657 5.93698 13.032 6.10389 13.032H7.65055V18.0133C7.65055 18.1802 7.71686 18.3403 7.83488 18.4583C7.9529 18.5764 8.11298 18.6427 8.27989 18.6427C8.4468 18.6427 8.60687 18.5764 8.72489 18.4583C8.84292 18.3403 8.90922 18.1802 8.90922 18.0133V13.032H10.4292C10.512 13.0324 10.594 13.0163 10.6705 12.9848C10.747 12.9533 10.8165 12.907 10.875 12.8485C10.9335 12.79 10.9799 12.7204 11.0114 12.6439C11.0429 12.5674 11.0589 12.4854 11.0586 12.4027Z" fill="#333333"/>
</svg>
