<svg width="24" height="28" viewBox="0 0 24 28" fill="none" xmlns="http://www.w3.org/2000/svg">
<path d="M17.7143 7.33333C17.7143 8.74782 17.1122 10.1044 16.0406 11.1046C14.969 12.1048 13.5155 12.6667 12 12.6667C10.4845 12.6667 9.03103 12.1048 7.95939 11.1046C6.88775 10.1044 6.28571 8.74782 6.28571 7.33333C6.28571 5.91885 6.88775 4.56229 7.95939 3.5621C9.03103 2.5619 10.4845 2 12 2C13.5155 2 14.969 2.5619 16.0406 3.5621C17.1122 4.56229 17.7143 5.91885 17.7143 7.33333ZM12 16.6667C9.34784 16.6667 6.8043 17.65 4.92893 19.4003C3.05357 21.1507 2 23.5246 2 26H22C22 23.5246 20.9464 21.1507 19.0711 19.4003C17.1957 17.65 14.6522 16.6667 12 16.6667Z" stroke="white" stroke-width="2.66667" stroke-linecap="round" stroke-linejoin="round"/>
</svg>
