<svg width="32" height="32" viewBox="0 0 32 32" fill="none" xmlns="http://www.w3.org/2000/svg">
<path d="M16 32C20.2435 32 24.3131 30.3143 27.3137 27.3137C30.3143 24.3131 32 20.2435 32 16C32 13.8988 31.5861 11.8183 30.7821 9.87706C29.978 7.93586 28.7994 6.17203 27.3137 4.68629C25.828 3.20055 24.0641 2.022 22.1229 1.21793C20.1817 0.413852 18.1012 0 16 0C13.8988 0 11.8183 0.413852 9.87706 1.21793C7.93586 2.022 6.17203 3.20055 4.68629 4.68629C1.68571 7.68687 0 11.7565 0 16C0 20.2435 1.68571 24.3131 4.68629 27.3137C6.17203 28.7994 7.93586 29.978 9.87706 30.7821C11.8183 31.5861 13.8988 32 16 32ZM16 28.8C12.6052 28.8 9.3495 27.4514 6.94903 25.051C4.54857 22.6505 3.2 19.3948 3.2 16C3.2 12.6052 4.54857 9.3495 6.94903 6.94903C9.3495 4.54857 12.6052 3.2 16 3.2C19.3948 3.2 22.6505 4.54857 25.051 6.94903C27.4514 9.3495 28.8 12.6052 28.8 16C28.8 19.3948 27.4514 22.6505 25.051 25.051C22.6505 27.4514 19.3948 28.8 16 28.8ZM21.5858 19.2C22.4767 19.2 22.9229 18.1229 22.2929 17.4929L16.7071 11.9071C16.3166 11.5166 15.6834 11.5166 15.2929 11.9071L9.7071 17.4929C9.07714 18.1229 9.52331 19.2 10.4142 19.2H21.5858Z" fill="black"/>
</svg>
